<svg enable-background="new 0 0 200 200" height="200" viewBox="0 0 200 200" width="200" xmlns="http://www.w3.org/2000/svg" xmlns:xlink="http://www.w3.org/1999/xlink"><pattern id="a" height="185.957" overflow="visible" patternUnits="userSpaceOnUse" viewBox="0 -185.957 185.957 185.957" width="185.957" x="-299.5" y="400.5"><path d="m0 0h185.957v-185.957h-185.957z" fill="none"/><path d="m0-185.957h185.957v185.957h-185.957z" fill="none"/><path d="m0 0h185.957v-185.957h-185.957z" fill="none"/><path d="m185.957 0h-185.957v-185.957h185.957z" fill="#00a6b7"/></pattern><pattern id="b" patternTransform="translate(-371.9141 17756.9141)" xlink:href="#a"/><path d="m92.684 14.271c-2.492 0-4.913.655-7.195 1.947-3.694 2.099-5.681 6.575-5.068 11.407.341 2.685 1.418 5.114 3.07 7.109-12.214 3.681-23.489 11.422-33.02 22.755-10.282 12.227-17.506 27.541-20.532 43.422h-19.939c-1.005 0-1.966.411-2.66 1.138s-1.061 1.706-1.016 2.71c.767 16.817 13.781 23.294 22.937 23.726 5.211 33.617 33.209 55.955 70.729 55.955s65.518-22.338 70.729-55.955c9.135-.418 22.122-6.855 22.949-23.577.009-.104.014-.209.014-.314 0-2.03-1.646-3.68-3.678-3.68h-.004-19.958c-2.938-15.403-9.86-30.352-19.683-42.398-11.363-13.938-25.409-22.713-40.621-25.382-.059-.011-.117-.021-.176-.03-.403-.069-.811-.134-1.215-.194-.686-.195-1.156-.534-1.438-1.03-.123-.216-.192-.432-.229-.62.486-.26.914-.629 1.246-1.088.692-.957.887-2.187.516-3.308-.916-2.779-3.565-4.575-6.754-4.575-1.687 0-3.273.505-4.559 1.421.076-.358.185-.587.248-.697.191-.336.393-.423.547-.461 1.479-.362 2.583-1.599 2.775-3.11.191-1.511-.567-2.984-1.909-3.705-1.013-.549-3.159-1.466-6.106-1.466z" fill="#2595a5"/><g fill="#22bcb9"><path d="m99.99 35.962c-38.878 0-67.928 42.762-67.928 80.996 0 37.565 27.933 63.804 67.928 63.804 39.994 0 67.929-26.236 67.929-63.804 0-38.234-29.05-80.996-67.929-80.996z"/><path d="m149.527 104.592h40.473s-.264 4.062-3.35 6.773c-3.117 2.752-6.395 2.699-8.465 2.572.969.563 2.576 1.27 4.559 1.17 3.271-.172 5.167-1.562 5.167-1.562s-2.081 5.145-5.826 6.387c-3.753 1.241-6.207.733-8.903-.768 0 0 2 2.896 6.545 3.045 0 0-4.09 2.619-9.967 2.619-5.871 0-19.498-3.889-20.233-20.236z"/><path d="m50.471 104.592h-40.471s.261 4.062 3.347 6.773c3.108 2.752 6.385 2.699 8.466 2.572-.97.563-2.584 1.27-4.566 1.17-3.265-.172-5.166-1.562-5.166-1.562s2.081 5.145 5.832 6.387c3.744 1.241 6.209.733 8.9-.768 0 0-1.996 2.896-6.546 3.045 0 0 4.096 2.619 9.969 2.619s19.489-3.889 20.235-20.236z"/><path d="m107.915 36.828s-6.685 1.689-15.659-.739c-9.563-2.587-10.276-13.645-4.955-16.668 4.203-2.378 8.032-1.369 9.751-.445-2.967.727-4.525 4.23-3.204 8.553 1.92 6.281 8.193 8.743 14.067 9.299z"/><path d="m109.02 36.741s-9.688 1.375-11.102-6.121c-.986-5.23 5.92-5.986 7.034-2.608-3.036-.008-3.222 8.161 4.068 8.729z"/></g><path d="m86.199 171.209c-12.465 0-24.163-2.578-34.29-7.457 11.928 10.762 28.567 18.009 48.081 18.009 39.994 0 67.929-27.235 67.929-64.803 0-25.028-11.544-53.333-31.954-67.64 12.373 15.521 20.003 35.99 20.003 56.252 0 41-31.23 65.639-69.769 65.639z" fill="url(#b)"/><path d="m56.927 79.185c0 5.421 4.387 9.807 9.803 9.807 5.421 0 9.811-4.385 9.811-9.807 0-5.419-4.39-9.81-9.811-9.81-5.416 0-9.803 4.391-9.803 9.81z"/><path d="m60.591 76.396c0 1.837 1.496 3.331 3.335 3.331 1.852 0 3.342-1.494 3.342-3.331 0-1.859-1.49-3.351-3.342-3.351-1.84-.001-3.335 1.492-3.335 3.351z" fill="#fff"/><path d="m123.452 79.185c0 5.421 4.394 9.807 9.812 9.807 5.408 0 9.805-4.385 9.805-9.807 0-5.419-4.396-9.81-9.805-9.81-5.418 0-9.812 4.391-9.812 9.81z"/><path d="m127.113 76.396c0 1.837 1.503 3.331 3.346 3.331 1.838 0 3.343-1.494 3.343-3.331 0-1.859-1.505-3.351-3.343-3.351-1.843-.001-3.346 1.492-3.346 3.351z" fill="#fff"/><path d="m141.721 104.616h-83.259-.004c-.002 0-.004 0-.006.001-3.13.005-5.668 2.542-5.668 5.67v47.845c0 3.134 2.543 5.679 5.679 5.679h83.26c3.133 0 5.676-2.545 5.676-5.679v-47.845c-.003-3.131-2.545-5.671-5.678-5.671z" fill="#e6e7e8"/><path d="m147.396 110.379c0-3.154-2.531-5.719-5.676-5.763h-83.258-.004c-3.146.044-5.675 2.608-5.675 5.763 0 1.953.981 4.158 2.467 5.194l38.548 28.065c1.785 1.045 3.9 2.021 6.229 2.021 2.333 0 4.493-.994 6.245-2.036l38.688-28.066c1.472-1.048 2.436-3.235 2.436-5.178z" fill="#808184"/><path d="m147.396 110.379c0-3.154-2.531-5.719-5.676-5.763h-83.258-.004c-3.146.044-5.675 2.608-5.675 5.763 0 1.953.981 3.689 2.467 4.729l38.548 21.053c1.761 1.035 3.9 2.021 6.229 2.021 2.333 0 4.475-.988 6.245-2.031l38.688-21.072c1.472-1.044 2.436-2.757 2.436-4.7z" fill="#fff"/><path d="m100.179 115.395 24.04-10.779-24.129-24.296-24.13 24.296z" fill="#f19028"/><path d="m100.179 115.395-.089-35.075-24.13 24.296z" fill="#fdbd10"/></svg>